<mxfile host="app.diagrams.net" agent="Mozilla/5.0 (Macintosh; Intel Mac OS X 10_15_7) AppleWebKit/605.1.15 (KHTML, like Gecko) Version/17.6 Safari/605.1.15" version="24.7.17">
  <diagram id="C5RBs43oDa-KdzZeNtuy" name="Page-1">
    <mxGraphModel dx="820" dy="1724" grid="1" gridSize="10" guides="1" tooltips="1" connect="1" arrows="1" fold="1" page="1" pageScale="1" pageWidth="827" pageHeight="1169" math="0" shadow="0">
      <root>
        <mxCell id="WIyWlLk6GJQsqaUBKTNV-0" />
        <mxCell id="WIyWlLk6GJQsqaUBKTNV-1" parent="WIyWlLk6GJQsqaUBKTNV-0" />
        <mxCell id="GR5yromeo0_nnMttp6pE-23" style="edgeStyle=orthogonalEdgeStyle;rounded=0;orthogonalLoop=1;jettySize=auto;html=1;entryX=0.5;entryY=0;entryDx=0;entryDy=0;" edge="1" parent="WIyWlLk6GJQsqaUBKTNV-1" source="GR5yromeo0_nnMttp6pE-0" target="GR5yromeo0_nnMttp6pE-3">
          <mxGeometry relative="1" as="geometry" />
        </mxCell>
        <mxCell id="GR5yromeo0_nnMttp6pE-0" value="start" style="rounded=1;whiteSpace=wrap;html=1;fillColor=#d5e8d4;strokeColor=#82b366;" vertex="1" parent="WIyWlLk6GJQsqaUBKTNV-1">
          <mxGeometry x="240" y="-1000" width="100" height="40" as="geometry" />
        </mxCell>
        <mxCell id="GR5yromeo0_nnMttp6pE-1" value="is there toothpaste left ?" style="rhombus;whiteSpace=wrap;html=1;fillColor=#fff2cc;strokeColor=#d6b656;" vertex="1" parent="WIyWlLk6GJQsqaUBKTNV-1">
          <mxGeometry x="200" y="-790" width="180" height="90" as="geometry" />
        </mxCell>
        <mxCell id="GR5yromeo0_nnMttp6pE-22" style="edgeStyle=orthogonalEdgeStyle;rounded=0;orthogonalLoop=1;jettySize=auto;html=1;entryX=0.5;entryY=0;entryDx=0;entryDy=0;" edge="1" parent="WIyWlLk6GJQsqaUBKTNV-1" source="GR5yromeo0_nnMttp6pE-3" target="GR5yromeo0_nnMttp6pE-1">
          <mxGeometry relative="1" as="geometry" />
        </mxCell>
        <mxCell id="GR5yromeo0_nnMttp6pE-3" value="pick up toothbrush&amp;nbsp;" style="rounded=0;whiteSpace=wrap;html=1;fillColor=#dae8fc;strokeColor=#6c8ebf;" vertex="1" parent="WIyWlLk6GJQsqaUBKTNV-1">
          <mxGeometry x="230" y="-900" width="120" height="40" as="geometry" />
        </mxCell>
        <mxCell id="GR5yromeo0_nnMttp6pE-6" value="yes" style="endArrow=classic;html=1;rounded=0;fontSize=12;startSize=8;endSize=8;curved=1;entryX=0.5;entryY=0;entryDx=0;entryDy=0;exitX=0.5;exitY=1;exitDx=0;exitDy=0;" edge="1" parent="WIyWlLk6GJQsqaUBKTNV-1" source="GR5yromeo0_nnMttp6pE-1" target="GR5yromeo0_nnMttp6pE-14">
          <mxGeometry x="-0.1429" y="20" width="50" height="50" relative="1" as="geometry">
            <mxPoint x="335" y="-722" as="sourcePoint" />
            <mxPoint x="540" y="-640" as="targetPoint" />
            <mxPoint as="offset" />
          </mxGeometry>
        </mxCell>
        <mxCell id="GR5yromeo0_nnMttp6pE-7" style="edgeStyle=none;curved=1;rounded=0;orthogonalLoop=1;jettySize=auto;html=1;exitX=0.5;exitY=1;exitDx=0;exitDy=0;fontSize=12;startSize=8;endSize=8;" edge="1" parent="WIyWlLk6GJQsqaUBKTNV-1" source="GR5yromeo0_nnMttp6pE-3" target="GR5yromeo0_nnMttp6pE-3">
          <mxGeometry relative="1" as="geometry" />
        </mxCell>
        <mxCell id="GR5yromeo0_nnMttp6pE-8" value="" style="endArrow=classic;html=1;rounded=0;fontSize=12;startSize=8;endSize=8;curved=1;exitX=1;exitY=0.5;exitDx=0;exitDy=0;entryX=0;entryY=0.5;entryDx=0;entryDy=0;" edge="1" parent="WIyWlLk6GJQsqaUBKTNV-1" source="GR5yromeo0_nnMttp6pE-1" target="GR5yromeo0_nnMttp6pE-13">
          <mxGeometry width="50" height="50" relative="1" as="geometry">
            <mxPoint x="530" y="-770" as="sourcePoint" />
            <mxPoint x="460" y="-750" as="targetPoint" />
          </mxGeometry>
        </mxCell>
        <mxCell id="GR5yromeo0_nnMttp6pE-24" value="no" style="edgeLabel;html=1;align=center;verticalAlign=middle;resizable=0;points=[];" vertex="1" connectable="0" parent="GR5yromeo0_nnMttp6pE-8">
          <mxGeometry x="0.0476" y="-2" relative="1" as="geometry">
            <mxPoint y="-17" as="offset" />
          </mxGeometry>
        </mxCell>
        <mxCell id="GR5yromeo0_nnMttp6pE-13" value="get a new toothbrush" style="rounded=0;whiteSpace=wrap;html=1;fillColor=#dae8fc;strokeColor=#6c8ebf;" vertex="1" parent="WIyWlLk6GJQsqaUBKTNV-1">
          <mxGeometry x="465" y="-765" width="120" height="40" as="geometry" />
        </mxCell>
        <mxCell id="GR5yromeo0_nnMttp6pE-25" style="edgeStyle=orthogonalEdgeStyle;rounded=0;orthogonalLoop=1;jettySize=auto;html=1;exitX=1;exitY=0.5;exitDx=0;exitDy=0;entryX=0;entryY=0.5;entryDx=0;entryDy=0;" edge="1" parent="WIyWlLk6GJQsqaUBKTNV-1" source="GR5yromeo0_nnMttp6pE-14" target="GR5yromeo0_nnMttp6pE-15">
          <mxGeometry relative="1" as="geometry" />
        </mxCell>
        <mxCell id="GR5yromeo0_nnMttp6pE-14" value="Apply toothbrush" style="rounded=0;whiteSpace=wrap;html=1;fillColor=#dae8fc;strokeColor=#6c8ebf;" vertex="1" parent="WIyWlLk6GJQsqaUBKTNV-1">
          <mxGeometry x="230" y="-630" width="120" height="40" as="geometry" />
        </mxCell>
        <mxCell id="GR5yromeo0_nnMttp6pE-26" style="edgeStyle=orthogonalEdgeStyle;rounded=0;orthogonalLoop=1;jettySize=auto;html=1;exitX=0.5;exitY=1;exitDx=0;exitDy=0;" edge="1" parent="WIyWlLk6GJQsqaUBKTNV-1" source="GR5yromeo0_nnMttp6pE-15" target="GR5yromeo0_nnMttp6pE-19">
          <mxGeometry relative="1" as="geometry" />
        </mxCell>
        <mxCell id="GR5yromeo0_nnMttp6pE-15" value="brush teeth" style="rounded=0;whiteSpace=wrap;html=1;fillColor=#dae8fc;strokeColor=#6c8ebf;" vertex="1" parent="WIyWlLk6GJQsqaUBKTNV-1">
          <mxGeometry x="460" y="-630" width="120" height="40" as="geometry" />
        </mxCell>
        <mxCell id="GR5yromeo0_nnMttp6pE-19" value="rinse mouth" style="rounded=0;whiteSpace=wrap;html=1;fillColor=#dae8fc;strokeColor=#6c8ebf;" vertex="1" parent="WIyWlLk6GJQsqaUBKTNV-1">
          <mxGeometry x="460" y="-520" width="120" height="40" as="geometry" />
        </mxCell>
      </root>
    </mxGraphModel>
  </diagram>
</mxfile>
